<svg xmlns="http://www.w3.org/2000/svg" id="Layer_1" viewBox="0 0 500 500"><g clip-rule="evenodd" fill-rule="evenodd"><path d="m114.813 119.813c6.242 0 12.323.686 18.177 1.977 11.268-45.523 52.384-79.275 101.39-79.275 41.773 0 77.814 24.526 94.522 59.96 28.302-15.026 63.205 5.338 63.205 38.044 0 5.84-1.165 11.408-3.272 16.486 41.189-8.98 80.413 22.303 80.413 64.713 0 36.583-29.656 66.238-66.238 66.238h-288.197c-46.432 0-84.072-37.64-84.072-84.072 0-46.431 37.64-84.071 84.072-84.071z" fill="#88c8fe"></path><g fill="#19cfba"><ellipse cx="56.374" cy="437.107" rx="20.381" ry="20.381" transform="matrix(.924 -.383 .383 .924 -162.982 54.846)"></ellipse><ellipse cx="56.374" cy="330.106" rx="20.381" ry="20.381" transform="matrix(.993 -.122 .122 .993 -39.911 9.361)"></ellipse><circle cx="443.615" cy="437.107" r="20.381"></circle><circle cx="443.615" cy="330.106" r="20.381"></circle></g><path d="m160.826 161.961h178.336c8.407 0 15.285 6.878 15.285 15.285v214.004c0 8.407-6.878 15.285-15.285 15.285h-178.336c-8.407 0-15.285-6.878-15.285-15.285v-214.003c0-8.407 6.878-15.286 15.285-15.286z" fill="#ada0ad"></path><path d="m181.543 289.344h20.295c2.826 0 5.138 2.312 5.138 5.139v20.295c0 2.826-2.312 5.138-5.138 5.138h-20.295c-2.826 0-5.138-2.312-5.138-5.138v-20.295c0-2.827 2.312-5.139 5.138-5.139zm142.041 61.186v20.295c0 2.826-2.312 5.138-5.138 5.138h-20.295c-2.826 0-5.138-2.312-5.138-5.138v-76.343c0-2.826 2.312-5.138 5.138-5.138h20.295c2.826 0 5.138 2.312 5.138 5.138zm-83.737-61.186h20.295c2.826 0 5.138 2.312 5.138 5.139v20.295c0 2.826-2.312 5.138-5.138 5.138h-20.295c-2.826 0-5.138-2.312-5.138-5.138v-20.295c0-2.827 2.312-5.139 5.138-5.139zm-58.304 56.048h20.295c2.826 0 5.138 2.312 5.138 5.139v20.295c0 2.826-2.312 5.138-5.138 5.138h-20.295c-2.826 0-5.138-2.312-5.138-5.138v-20.296c0-2.826 2.312-5.138 5.138-5.138zm58.304 0h20.295c2.826 0 5.138 2.312 5.138 5.139v20.295c0 2.826-2.312 5.138-5.138 5.138h-20.295c-2.826 0-5.138-2.312-5.138-5.138v-20.296c0-2.826 2.312-5.138 5.138-5.138z" fill="#ffe177"></path><path d="m185.62 253.677h128.749c5.069 0 9.215-4.147 9.215-9.215v-37.617c0-5.069-4.147-9.216-9.215-9.216h-128.749c-5.069 0-9.215 4.147-9.215 9.216v37.617c0 5.068 4.146 9.215 9.215 9.215z" fill="#ffe177"></path><path d="m316.733 244.458c0 1.27-1.097 2.367-2.367 2.367h-128.732c-1.27 0-2.367-1.097-2.367-2.367v-37.639c0-1.27 1.097-2.367 2.367-2.367h128.733c1.27 0 2.367 1.097 2.367 2.367v37.639zm-2.366-53.687h-128.733c-8.89 0-16.106 7.216-16.106 16.048v37.639c0 8.832 7.216 16.048 16.106 16.048h128.733c8.89 0 16.048-7.216 16.048-16.048v-37.639c0-8.832-7.158-16.048-16.048-16.048zm-114.244 122.268h-16.857v-16.857h16.857zm1.732-30.538h-20.32c-6.581 0-12.007 5.369-12.007 11.95v20.32c0 6.581 5.426 12.007 12.007 12.007h20.32c6.581 0 11.95-5.426 11.95-12.007v-20.32c0-6.582-5.369-11.95-11.95-11.95zm56.573 86.591h-16.857v-16.857h16.857zm1.732-30.595h-20.32c-6.581 0-11.95 5.427-11.95 12.008v20.32c0 6.581 5.369 11.949 11.95 11.949h20.32c6.581 0 11.949-5.368 11.949-11.949v-20.32c.001-6.582-5.368-12.008-11.949-12.008zm-1.732-25.458h-16.857v-16.857h16.857zm1.732-30.538h-20.32c-6.581 0-11.95 5.369-11.95 11.95v20.32c0 6.581 5.369 12.007 11.95 12.007h20.32c6.581 0 11.949-5.426 11.949-12.007v-20.32c.001-6.582-5.368-11.95-11.949-11.95zm56.573 86.591h-16.857v-72.91h16.857zm1.732-86.591h-20.32c-6.581 0-11.95 5.369-11.95 11.95v76.374c0 6.581 5.369 11.949 11.95 11.949h20.32c6.581 0 11.95-5.368 11.95-11.949v-76.375c0-6.581-5.369-11.949-11.95-11.949zm-118.342 86.591h-16.857v-16.857h16.857zm1.732-30.595h-20.32c-6.581 0-12.007 5.427-12.007 12.008v20.32c0 6.581 5.426 11.949 12.007 11.949h20.32c6.581 0 11.95-5.368 11.95-11.949v-20.32c0-6.582-5.369-12.008-11.95-12.008zm145.763 52.763v-214.055c0-4.618-3.81-8.428-8.428-8.428h-178.379c-4.618 0-8.428 3.81-8.428 8.428v214.055c0 4.618 3.81 8.428 8.428 8.428h178.379c4.618 0 8.428-3.81 8.428-8.428zm-232.816-110.145h23.899v-103.91c0-12.181 9.929-22.11 22.11-22.11h178.379c12.18 0 22.109 9.929 22.109 22.11v103.91h41.737c32.732 0 59.344-26.67 59.344-59.402 0-37.705-34.773-66.071-72.102-58.017-5.491 1.185-9.82-4.355-7.793-9.352 1.848-4.387 2.771-9.063 2.771-13.855 0-27.228-29.03-44.701-53.109-31.981-3.451 1.823-7.767.451-9.41-3.117-16.106-34.059-50.743-56.054-88.323-56.054-45.028 0-83.994 30.48-94.789 74.065-.866 3.637-4.503 5.888-8.082 5.08-47.947-10.712-93.923 25.932-93.923 75.392-.001 42.547 34.636 77.241 77.182 77.241zm342.325 155.981c0 7.447-6.061 13.508-13.508 13.508s-13.508-6.061-13.508-13.508 6.062-13.508 13.508-13.508c7.447-.001 13.508 6.061 13.508 13.508zm-400.746 13.508c-7.447 0-13.508-6.061-13.508-13.508s6.062-13.508 13.508-13.508c7.447 0 13.508 6.061 13.508 13.508s-6.061 13.508-13.508 13.508zm0-106.97c-7.447 0-13.508-6.062-13.508-13.566 0-7.447 6.062-13.508 13.508-13.508 7.447 0 13.508 6.062 13.508 13.508 0 7.505-6.061 13.566-13.508 13.566zm387.238-27.074c7.447 0 13.508 6.062 13.508 13.508 0 7.504-6.061 13.566-13.508 13.566s-13.508-6.062-13.508-13.566c0-7.446 6.061-13.508 13.508-13.508zm-26.382 20.378c3.06 11.719 13.739 20.378 26.382 20.378 15.009 0 27.247-12.238 27.247-27.247s-12.238-27.19-27.247-27.19c-12.643 0-23.322 8.659-26.382 20.378h-55.938v-28.46h41.737c40.294 0 73.083-32.789 73.083-73.083s-32.789-73.083-73.083-73.083c-1.616 0-3.175.058-4.734.115.462-2.713.635-5.427.635-8.255 0-34.8-34.72-58.553-66.849-46.933-19.515-35.608-56.853-57.901-97.675-57.901-49.184 0-92.018 31.866-106.335 78.279-4.387-.693-8.832-.981-13.277-.981-50.108 0-90.921 40.756-90.921 90.921 0 50.108 40.813 90.921 90.921 90.921h23.899v28.46h-55.937c-3.06-11.719-13.739-20.378-26.382-20.378-15.009 0-27.248 12.181-27.248 27.19s12.238 27.247 27.248 27.247c12.642 0 23.322-8.659 26.382-20.378h55.938v37.234h-41.564c-2.194 0-4.272 1.039-5.542 2.829l-25.285 34.752c-17.739-7.03-37.177 6.156-37.177 25.342 0 15.009 12.238 27.248 27.248 27.248 22.924 0 35.632-26.835 21.013-44.508l23.207-31.924h38.1v3.348c0 12.181 9.929 22.11 22.11 22.11h178.379c12.18 0 22.109-9.929 22.109-22.11v-3.348h38.043l23.264 31.924c-14.62 17.675-1.91 44.508 21.013 44.508 15.009 0 27.247-12.238 27.247-27.248 0-19.187-19.437-32.372-37.177-25.342l-25.285-34.752c-1.328-1.789-3.348-2.829-5.542-2.829h-41.564v-37.234z" fill="#1e2f3f"></path></g></svg>