<svg xmlns="http://www.w3.org/2000/svg" id="Layer_5" height="512" viewBox="0 0 62 62" width="512"><g><g><g><path d="m41 31h18c1.1 0 2 .9 2 2v16c0 1.1-.9 2-2 2h-7l-2.6 3.47c-.25.33-.65.53-1.07.53-.73 0-1.33-.6-1.33-1.33v-2.67h-6c-1.1 0-2-.9-2-2v-16c0-1.1.9-2 2-2z" fill="#e6e9ed"></path></g><g><path d="m18.01 5h-.01v-2c0-1.1.9-2 2-2h32c1.1 0 2 .9 2 2v2z" fill="#aab2bd"></path></g><g><path d="m22 9h32v12c0 1.1-.9 2-2 2h-9l-2.6 3.47c-.25.33-.65.53-1.07.53-.73 0-1.33-.6-1.33-1.33v-2.67h-6.44c.29-.78.44-1.61.44-2.47 0-3.19-1.29-6.07-3.38-8.15-1.74-1.75-4.05-2.94-6.62-3.28 0-.03 0-.07 0-.1z" fill="#aab2bd"></path></g><g><path d="m46 15h4v4h-4z" fill="#fcd770"></path></g><g><path d="m38 15h4v4h-4z" fill="#fcd770"></path></g><g><path d="m54 5v4h-32c0-2.21-1.78-3.99-3.99-4z" fill="#ef7385"></path></g><g><path d="m20.47 9h-4.94c-.52 0-1.03.03-1.53.1 0-.03 0-.07 0-.1 0-2.21 1.79-4 4-4h.01c2.21.01 3.99 1.79 3.99 4v.1c-.5-.07-1.01-.1-1.53-.1z" fill="#fcd770"></path></g><g><path d="m10.48 19.17-.01.01c-1.47.49-2.47 1.87-2.47 3.43v.39h-3c-.19 0-.37.02-.55.05-.29-.79-.45-1.65-.45-2.52 0-5.85 4.35-10.68 10-11.43.5-.07 1.01-.1 1.53-.1h4.94c.52 0 1.03.03 1.53.1 2.57.34 4.88 1.53 6.62 3.28 2.09 2.08 3.38 4.96 3.38 8.15 0 .86-.15 1.69-.44 2.47-.11.32-.25.62-.4.92-.54-.57-1.31-.92-2.16-.92h-1-.39c-1.13 0-2.22-.28-3.18-.8-.97-.52-1.81-1.26-2.43-2.2l-1 2c-1.94-.65-3.62-1.93-4.75-3.63l-.25-.37-2 4-2.93-2.2c-.24-.18-.44-.39-.59-.63z" fill="#b27946"></path></g><g><path d="m9 57h-6-2c0-9.36 6.26-12.92 10.41-14.25l.07.24c.34 1.06.81 2.07 1.38 3.01 1.06 1.73 2.49 3.22 4.2 4.37l.94.63.94-.63c1.71-1.15 3.14-2.64 4.2-4.37.57-.94 1.04-1.95 1.38-3.01l.07-.24c4.15 1.33 10.41 4.89 10.41 14.25h-2-6v4h-18z" fill="#ef7385"></path></g><g><path d="m12.86 46h10.28c-1.06 1.73-2.49 3.22-4.2 4.37l-.94.63-.94-.63c-1.71-1.15-3.14-2.64-4.2-4.37z" fill="#ffeaa7"></path></g><g><path d="m27 57h6v4h-6z" fill="#f0d0b4"></path></g><g><path d="m3 57h6v4h-6z" fill="#f0d0b4"></path></g><g><path d="m31.16 23.92c.52.54.84 1.27.84 2.08 0 .83-.34 1.58-.88 2.12s-1.29.88-2.12.88h-1v-6h1c.85 0 1.62.35 2.16.92z" fill="#f0d0b4"></path></g><g><path d="m16.75 34.8c-.15-.35-.37-.66-.63-.92-.54-.54-1.29-.88-2.12-.88h-1c-1.43 0-2.62.99-2.92 2.33-1.32-1.78-2.08-3.97-2.08-6.28v-.05-6-.39c0-1.56 1-2.94 2.47-3.43l.01-.01c.15.24.35.45.59.63l2.93 2.2 2-4 .25.37c1.13 1.7 2.81 2.98 4.75 3.63l1-2c.62.94 1.46 1.68 2.43 2.2.96.52 2.05.8 3.18.8h.39v6 .04c0 4.22-2.51 8.04-6.39 9.7-.37.16-.61.52-.61.92v1.45c0 .49.35.91.83.98.65.1 1.63.3 2.76.66l-.07.24c-.34 1.06-.81 2.07-1.38 3.01h-10.28c-.57-.94-1.04-1.95-1.38-3.01l-.07-.24c1.13-.36 2.11-.56 2.76-.66.48-.07.83-.49.83-.98v-2.28-.01c1.17-.4 2-1.51 2-2.82 0-.43-.09-.83-.25-1.2z" fill="#f0d0b4"></path></g><g><path d="m8 23v6h-3c-.35 0-.69-.06-1-.18-1.17-.4-2-1.51-2-2.82 0-.83.34-1.58.88-2.12.42-.42.96-.72 1.57-.83.18-.03.36-.05.55-.05z" fill="#aab2bd"></path></g><g><path d="m16.75 34.8c.16.37.25.77.25 1.2 0 1.31-.83 2.42-2 2.82-.31.12-.65.18-1 .18h-4v-3c0-.23.03-.45.08-.67.3-1.34 1.49-2.33 2.92-2.33h1c.83 0 1.58.34 2.12.88.26.26.48.57.63.92z" fill="#aab2bd"></path></g></g><g><path d="m49 38h2c.551 0 1 .449 1 1h2c0-1.654-1.346-3-3-3v-2h-2v2c-1.654 0-3 1.346-3 3s1.346 3 3 3h2c.551 0 1 .449 1 1s-.449 1-1 1h-2c-.551 0-1-.449-1-1h-2c0 1.654 1.346 3 3 3v2h2v-2c1.654 0 3-1.346 3-3s-1.346-3-3-3h-2c-.551 0-1-.449-1-1s.449-1 1-1z"></path><path d="m59 30h-18c-1.654 0-3 1.346-3 3v16c0 1.654 1.346 3 3 3h5v1.667c0 1.286 1.047 2.333 2.333 2.333.73 0 1.428-.349 1.866-.933l2.301-3.067h6.5c1.654 0 3-1.346 3-3v-16c0-1.654-1.346-3-3-3zm1 19c0 .551-.449 1-1 1h-7.5l-2.9 3.867c-.172.23-.599.089-.6-.201v-3.666h-7c-.551 0-1-.449-1-1v-16c0-.551.449-1 1-1h18c.551 0 1 .449 1 1z"></path><path d="m41.2 27.067 2.3-3.067h8.5c1.654 0 3-1.346 3-3v-18c0-1.654-1.346-3-3-3h-32c-1.654 0-3 1.346-3 3v1.101c-2.035.415-3.606 2.075-3.924 4.143-5.737 1.144-10.076 6.215-10.076 12.284 0 .645.082 1.281.23 1.903-1.316.656-2.23 2.002-2.23 3.569 0 1.474.81 2.75 2 3.444v5.556c0 2.757 2.243 5 5 5h6 .004l.004 1.105c-3.286.524-14.008 3.22-14.008 15.895v1h2v4h32v-4h2v-1c0-12.674-10.722-15.371-14-15.893l.002-1.449c3.957-1.695 6.607-5.421 6.957-9.658h.041c2.206 0 4-1.794 4-4 0-.732-.212-1.409-.556-2h4.556v1.667c0 1.286 1.047 2.333 2.333 2.333.731 0 1.429-.349 1.867-.933zm-19.226-21.067h31.026v2h-30.101c-.152-.743-.482-1.416-.925-2zm-1.974-4h32c.551 0 1 .449 1 1v1h-34v-1c0-.551.449-1 1-1zm-2 4c1.295 0 2.391.83 2.81 2.017-.114-.003-.224-.017-.338-.017h-4.944c-.118 0-.232.014-.349.018.409-1.171 1.513-2.018 2.821-2.018zm-13 18h2.001v4h-2.001c-1.103 0-2-.897-2-2s.897-2 2-2zm4 14h-1c-1.654 0-3-1.346-3-3v-5h2.041c.164 2.009.851 3.915 2.001 5.584-.015.139-.042.274-.042.416zm2 0v-2c0-1.103.897-2 2-2h1c1.103 0 2 .897 2 2s-.897 2-2 2zm-.196 6.036c1.11 2.91 3.105 5.439 5.702 7.17l.494.329v8.465h-7v-3.236l-.619-1.236c-.249-.501-.381-1.059-.381-1.617 0-.965.376-1.873 1.058-2.555l.649-.649-1.414-1.414-.649.649c-1.06 1.06-1.644 2.47-1.644 3.969 0 .713.146 1.425.412 2.089h-5.385c.393-7.348 5.108-10.563 8.777-11.964zm7.58 5.506-.384.256-.384-.256c-1.058-.705-1.995-1.57-2.799-2.542h6.367c-.805.972-1.741 1.836-2.8 2.542zm-14.384 8.458h4v2h-4zm28 2h-4v-2h4zm1.974-4h-5.386c.266-.664.412-1.376.412-2.089 0-1.5-.584-2.909-1.644-3.969l-.649-.649-1.414 1.414.649.649c.682.683 1.058 1.59 1.058 2.555 0 .558-.132 1.116-.381 1.616l-.619 1.237v3.236h-7v-8.465l.494-.329c2.598-1.732 4.593-4.26 5.702-7.17 3.669 1.401 8.384 4.617 8.778 11.964zm-12.762-18.179c-.736.316-1.212 1.037-1.212 1.839v1.447c0 .988.706 1.818 1.677 1.973.415.066.977.18 1.615.345-.212.543-.46 1.068-.741 1.576h-9.101c-.281-.508-.529-1.033-.741-1.576.638-.165 1.199-.278 1.615-.345.971-.155 1.676-.985 1.676-1.973v-1.663c1.19-.694 2-1.97 2-3.444h.001c2.282 0 4.273-1.542 4.842-3.75l-1.937-.499c-.341 1.324-1.535 2.249-2.905 2.249-.202 0-.399-.027-.593-.066-.703-1.154-1.961-1.934-3.408-1.934h-1c-1.185 0-2.24.528-2.973 1.349-.673-1.327-1.026-2.789-1.026-4.303v-6.441c0-.921.484-1.749 1.244-2.218.079.07.143.154.229.218l3.885 2.914 1.805-3.609c1.2 1.394 2.769 2.455 4.521 3.039l.822.274.706-1.411c1.286 1.253 2.975 2.024 4.788 2.165v5.066c0 3.825-2.271 7.27-5.789 8.778zm1.62-18.376-.956-1.434-1.362 2.724c-1.387-.633-2.587-1.649-3.437-2.922l-1.202-1.801-2.234 4.468-1.968-1.476c-.422-.315-.673-.818-.673-1.346 0-.642.356-1.218.931-1.505l.517-.258-.895-1.789-.517.258c-1.256.628-2.036 1.89-2.036 3.294 0 .36.071.708.172 1.047-1.158.725-1.943 1.924-2.124 3.295h-1.85c-.117-.482-.198-.971-.198-1.472 0-5.805 4.723-10.528 10.528-10.528h4.944c5.805 0 10.528 4.723 10.528 10.528 0 .634-.109 1.263-.298 1.866-.518-.246-1.091-.394-1.702-.394h-1-.395c-1.922 0-3.707-.955-4.773-2.555zm6.169 8.555v-4c1.103 0 2 .897 2 2-.001 1.103-.897 2-2 2zm9.999-2.333v-3.667h-6.149c.089-.486.149-.977.149-1.472 0-4.415-2.302-8.296-5.763-10.528h25.763v11c0 .551-.449 1-1 1h-9.5l-2.9 3.867c-.172.231-.6.089-.6-.2z"></path><circle cx="13" cy="26" r="1"></circle><circle cx="23" cy="26" r="1"></circle><path d="m19 26.764v-1.764h-2v2c0 .155.036.309.105.447l.553 1.105-1.105.553.895 1.789 1.105-.553c.478-.239.834-.65 1.003-1.157s.13-1.049-.108-1.527z"></path><path d="m51 14h-6v6h6zm-2 4h-2v-2h2z"></path><path d="m43 14h-6v6h6zm-2 4h-2v-2h2z"></path></g></g></svg>