<svg xmlns="http://www.w3.org/2000/svg" id="Layer_1" height="512" viewBox="0 0 53 53" width="512"><g id="_x34_8"><g><g><g><g><path d="m50.5453911 24.7214985c0 4.8381195-3.9282379 8.6535015-8.6536255 8.6535015h-30.7835331c-4.7547011 0-8.6536226-3.8620701-8.6536226-8.6535015 0-4.3699207 3.236871-7.990696 7.4504051-8.5732651v-.1403961c0-4.5987139 4.4880962-7.8575554 8.8739481-6.417449 1.7346897-4.1612616 5.8459511-7.0892558 10.6389942-7.0892558 7.2751732 0 12.6634598 6.6600947 11.3308144 13.637064.3809166-.0501251.7618332-.0701981 1.1429939-.0701981 4.7379265.0000005 8.6536255 3.8342977 8.6536255 8.6535001z" fill="#65b9ff"></path></g></g><g><g><path d="m32.8773613 3.0314112c-4.4220409.3309155-8.1421013 3.1485634-9.7765446 7.059206-4.3861485-1.440341-8.8741312 1.8188925-8.8741312 6.417388v.1403961c-4.2077179.5819378-7.4502215 4.1972256-7.4502215 8.5732651 0 3.909235 2.6450448 7.1501064 5.7857289 8.1521397h-1.4539604c-4.8957667 0-8.6535006-3.9954128-8.6535006-8.6534996 0-4.370739 3.2376659-7.9906597 7.450222-8.573267v-.1403961c0-4.5982885 4.4877653-7.8577995 8.8741312-6.417387 1.7346898-4.1613237 5.8458291-7.0892564 10.6388722-7.0892564 1.2032795 0 2.3664112.1905198 3.459404.5314112z" fill="#3e7fff"></path></g></g></g></g><g><g><g><g><g><path d="m43.5653496 26.0493813v21.6063957c0 1.5643311-1.279892 2.844223-2.8442268 2.844223h-28.4422465c-1.5642891 0-2.8442249-1.279892-2.8442249-2.844223v-21.6063957z" fill="#deddff"></path></g></g></g><g><g><g><path d="m43.5679665 22.5793495v3.4700317h-34.1299429v-3.4700317c0-1.5699463 1.2799683-2.8499756 2.8399658-2.8499756h28.4400024c1.5700064 0 2.8499747 1.2800293 2.8499747 2.8499756z" fill="#fcb73e"></path></g></g></g><g><g><path d="m14.0008984 50.4996719h-1.7207441c-1.564332 0-2.844224-1.279892-2.844224-2.8442268v-21.5992756h1.7207432v21.5992756c-.0000001 1.5643349 1.2799358 2.8442268 2.8442249 2.8442268z" fill="#c6c6f7"></path></g></g><g><g><g><path d="m13.9980211 19.7293739c-1.5700073 0-2.8400269 1.2800293-2.8400269 2.8499756v3.4700317h-1.7199706v-3.4700317c0-1.5699463 1.2799683-2.8499756 2.8399658-2.8499756z" fill="#fd982e"></path></g></g></g><g><g><g><g><path d="m21.6221848 23.2257347c0 .6684895-.5416164 1.2101078-1.2052212 1.2101078-.6684895 0-1.2101364-.5416183-1.2101364-1.2101078s.541647-1.2101364 1.2101364-1.2101364c.6636047 0 1.2052212.541647 1.2052212 1.2101364z" fill="#deddff"></path></g></g><g><g><path d="m18.2820587 23.2257347c0 .6684895-.5416183 1.2101078-1.2052231 1.2101078-.6684895 0-1.2101355-.5416183-1.2101355-1.2101078s.541646-1.2101364 1.2101355-1.2101364c.6636048 0 1.2052231.541647 1.2052231 1.2101364z" fill="#deddff"></path></g></g><g><g><path d="m14.9419317 23.2257347c0 .6684895-.5416174 1.2101078-1.2052221 1.2101078-.6684895 0-1.2101364-.5416183-1.2101364-1.2101078s.541647-1.2101364 1.2101364-1.2101364c.6636047 0 1.2052221.541647 1.2052221 1.2101364z" fill="#deddff"></path></g></g></g><g><g><path d="m40.4801178 23.3702583c0 .4275684-.3471375.774704-.774704.774704h-11.2895412c-.4318066 0-.774704-.3471355-.774704-.774704 0-.4275703.3428974-.7747059.774704-.7747059h11.2895412c.4275665 0 .774704.3471356.774704.7747059z" fill="#deddff"></path></g></g></g></g></g><g><g><g><g><path d="m19.3115578 43.126545v4.2270012c0 .4522438-.3642998.8165054-.8227901.8165054h-2.8138103c-.4522419 0-.8227911-.3642616-.8227911-.8165054v-4.2270012c0-.45224.3705492-.8227882.8227911-.8227882h2.8138103c.4584903-.0000001.8227901.3705482.8227901.8227882z" fill="#f879ca"></path></g></g><g><g><path d="m17.0260429 48.1711922h-1.342185c-.4621954 0-.8293705-.3672142-.8293705-.8293686v-4.2101822c0-.4558182.3671751-.8230324.8293705-.8230324h1.342185c-.4558582 0-.8230324.3672142-.8230324.8230324v4.2101822c.0000001.4621544.3671742.8293686.8230324.8293686z" fill="#e2429a"></path></g></g><g><g><path d="m25.592411 38.3975334v8.9560127c0 .4522438-.3705482.8165054-.8227901.8165054h-2.8138103c-.4585285 0-.8227901-.3642616-.8227901-.8165054v-8.9560127c0-.45224.3642616-.8165054.8227901-.8165054h2.8138103c.4522419 0 .8227901.3642654.8227901.8165054z" fill="#46cc6b"></path></g></g><g><g><path d="m23.3064613 48.1711922h-1.3485222c-.4558201 0-.8230324-.3672142-.8230324-.8293686v-8.9327736c0-.4621964.3672123-.8294067.8230324-.8294067h1.3485222c-.4558201 0-.8293705.3672104-.8293705.8294067v8.9327736c0 .4621544.3735505.8293686.8293705.8293686z" fill="#34ba5d"></path></g></g><g><g><path d="m31.8669796 41.6510124v5.7025337c0 .4522438-.3642616.8165054-.8165035.8165054h-2.820097c-.4522419 0-.8165035-.3642616-.8165035-.8165054v-5.7025337c0-.4522057.3642616-.8227921.8165035-.8227921h2.820097c.4522419.0000001.8165035.3705865.8165035.8227921z" fill="#65b9ff"></path></g></g><g><g><path d="m29.5805416 48.1711922h-1.3421841c-.4558201 0-.8293705-.3672142-.8293705-.8293686v-5.6849289c0-.4558563.3735504-.8293686.8293705-.8293686h1.3421841c-.4558182 0-.8230324.3735123-.8230324.8293686v5.6849289c0 .4621544.3672142.8293686.8230324.8293686z" fill="#3e7fff"></path></g></g><g><g><path d="m38.1478348 34.7546463v12.5988998c0 .4522438-.3705521.8165054-.8227921.8165054h-2.8138084c-.4522438 0-.8227921-.3642616-.8227921-.8165054v-12.5988998c0-.4522438.3705482-.8227921.8227921-.8227921h2.8138084c.45224 0 .8227921.3705483.8227921.8227921z" fill="#e83d62"></path></g></g><g><g><path d="m35.8610001 48.1711922h-1.342186c-.4621964 0-.8293686-.3672142-.8293686-.8293686v-12.5794792c0-.4621582.3671722-.8293724.8293686-.8293724h1.342186c-.4558601 0-.8230324.3672142-.8230324.8293724v12.5794792c0 .4621544.3671722.8293686.8230324.8293686z" fill="#ce2955"></path></g></g></g></g><g><g><g><g><g><path d="m37.587986 29.7293739-.4299927 1.7000122c-.1199951.4799805-.710022.6599731-1.0700073.3099976l-.2700195-.2600098-5.8199444 6.039978c-.1700439.1800537-.4500122.2000122-.6500244.0500488l-5.9699707-4.3600464-5.9200439 6.5900269c-.0999756.1099854-.2399902.1599731-.3800049.1599731-.1199951 0-.2399902-.039978-.3299561-.1300049-.210022-.1799927-.2200317-.5-.0400391-.6999512l6.2300415-6.9200439c.1699829-.1900024.4599609-.2199707.6599731-.0700073l5.9799805 4.3700562 5.5100079-5.7300415-.2700195-.2600098c-.3499756-.3399658-.1999512-.9400024.2700195-1.0799561l1.6900024-.4899902c.4799805-.1300048.9299927.2999879.8099976.7799683z" fill="#312e4b"></path></g></g></g></g></g></g></svg>