<svg xmlns="http://www.w3.org/2000/svg" id="Layer_1" height="512" viewBox="0 0 512 512" width="512"><g clip-rule="evenodd" fill-rule="evenodd"><g><path d="m341.165 414.624-171.611 2.201-38.127 65.425c-1.675 2.874.59 6.026 3.463 6.026h242.22c2.873 0 5.138-3.152 3.463-6.026z" fill="#004960"></path><path d="m477.21 66.185c14.184 0 25.79 11.604 25.79 25.79v310.45c0 14.185-11.606 25.789-25.79 25.789h-442.421c-14.183 0-25.789-11.604-25.789-25.789v-310.451c0-14.185 11.606-25.79 25.789-25.79h442.421z" fill="#e6f8ff"></path><path d="m503 385.032h-494v17.393c0 14.185 11.606 25.79 25.789 25.79h442.421c14.183 0 25.789-11.604 25.789-25.79v-17.393z" fill="#007ba1"></path></g><path d="m180.175 318.519c-32.726 0-59.502-26.776-59.502-59.502 0-29.071 21.331-54.089 50.012-58.736-.003-.255-.01-.51-.01-.766 0-36.902 29.915-66.818 66.818-66.818 22.172 0 41.819 10.803 53.973 27.429 5.768-3.942 12.743-6.248 20.257-6.248 19.854 0 35.949 16.095 35.949 35.949 0 3.974-.646 7.796-1.837 11.37 26.024 6.343 45.492 29.916 45.492 57.82 0 32.726-26.776 59.502-59.502 59.502z" fill="#4294ff"></path><path d="m280.947 44.526c-4.263 1.139-8.642-1.394-9.781-5.656-1.139-4.263 1.394-8.642 5.656-9.781 41.708-11.176 84.011-4.38 118.687 15.64 34.665 20.014 61.694 53.251 72.872 94.966 1.139 4.263-1.394 8.642-5.656 9.781-4.263 1.139-8.642-1.393-9.781-5.656-10.038-37.461-34.309-67.308-65.434-85.278-31.115-17.965-69.094-24.056-106.563-14.016zm20.488 76.46c16.354-4.382 32.926-1.727 46.496 6.107 13.581 7.841 24.172 20.866 28.553 37.213 1.139 4.263 5.518 6.795 9.781 5.656s6.795-5.518 5.656-9.781c-5.52-20.602-18.87-37.016-35.99-46.901-17.132-9.891-38.026-13.25-58.621-7.732-4.263 1.139-6.795 5.518-5.656 9.781 1.138 4.264 5.518 6.796 9.781 5.657zm-10.244-38.23c26.926-7.215 54.212-2.841 76.56 10.061 22.331 12.893 39.75 34.327 46.962 61.246 1.139 4.263 5.518 6.795 9.781 5.656s6.795-5.518 5.656-9.781c-8.345-31.144-28.547-55.972-54.462-70.933-25.898-14.952-57.485-20.029-88.623-11.686-4.263 1.139-6.795 5.519-5.656 9.781 1.139 4.263 5.519 6.795 9.782 5.656z" fill="#ffe600"></path><g><circle cx="105.81" cy="107.53" fill="#4294ff" r="69.63"></circle><path d="m135.454 79.031c3.106-3.124 8.158-3.138 11.281-.031 3.124 3.106 3.138 8.158.031 11.281l-45.319 45.745c-3.086 3.103-8.09 3.137-11.218.093l-25.281-24.642c-3.158-3.072-3.228-8.123-.156-11.281s8.123-3.228 11.281-.156l19.62 19.125z" fill="#eff4f7"></path></g></g></svg>