<svg xmlns="http://www.w3.org/2000/svg" id="Layer_1" data-name="Layer 1" viewBox="0 0 512 512"><path d="M262.7,278.524a6.8,6.8,0,0,0-6.8,6.8v6.957a6.8,6.8,0,1,0,13.6,0v-6.958a6.8,6.8,0,0,0-6.8-6.8Zm0-57.2a6.8,6.8,0,0,0-6.8,6.8v35.407a6.8,6.8,0,1,0,13.6,0V228.124a6.8,6.8,0,0,0-6.8-6.8ZM323.919,260.2A61.219,61.219,0,1,1,262.7,198.985,61.291,61.291,0,0,1,323.919,260.2Zm13.6,0A74.823,74.823,0,1,1,262.7,185.381,74.91,74.91,0,0,1,337.522,260.2Zm46.63-9.842v19.715a.413.413,0,0,1-.34.466l-15.79,5.023a6.828,6.828,0,0,0-4.605,5.14,101.736,101.736,0,0,1-15.051,36.282A6.8,6.8,0,0,0,348,323.89l7.636,14.663a.426.426,0,0,1-.088.573L341.6,353.06a.405.405,0,0,1-.573.087L326.3,345.539a6.8,6.8,0,0,0-6.879.369,101.77,101.77,0,0,1-36.3,15.032,6.816,6.816,0,0,0-5.15,4.625l-4.955,15.75a.421.421,0,0,1-.467.35H252.833a.419.419,0,0,1-.466-.35l-5.034-15.789a6.813,6.813,0,0,0-5.13-4.606,101.829,101.829,0,0,1-36.292-15.051,6.79,6.79,0,0,0-6.9-.369l-14.663,7.637a.423.423,0,0,1-.573-.087l-13.934-13.934a.418.418,0,0,1-.087-.583l7.608-14.72a6.813,6.813,0,0,0-.369-6.889,101.6,101.6,0,0,1-15.032-36.3,6.8,6.8,0,0,0-4.624-5.141l-15.751-4.965a.42.42,0,0,1-.35-.466V250.336a.419.419,0,0,1,.35-.466l15.789-5.023a6.8,6.8,0,0,0,4.6-5.131,101.835,101.835,0,0,1,15.061-36.3,6.785,6.785,0,0,0,.369-6.9l-7.637-14.662a.415.415,0,0,1,.088-.574l13.933-13.933a.417.417,0,0,1,.574-.088l14.739,7.609a6.8,6.8,0,0,0,6.88-.369,101.747,101.747,0,0,1,36.3-15.032,6.771,6.771,0,0,0,5.141-4.626l4.965-15.75a.414.414,0,0,1,.467-.34h19.7a.417.417,0,0,1,.477.34l5.023,15.79a6.813,6.813,0,0,0,5.13,4.6,101.678,101.678,0,0,1,36.291,15.051,6.806,6.806,0,0,0,6.91.369l14.652-7.637a.426.426,0,0,1,.582.087L355.556,181.3a.413.413,0,0,1,.088.573l-7.618,14.721a6.835,6.835,0,0,0,.379,6.889,101.768,101.768,0,0,1,15.031,36.3,6.787,6.787,0,0,0,4.625,5.14l15.751,4.965a.414.414,0,0,1,.34.467Zm3.79,33.143-12.058,3.837a115.3,115.3,0,0,1-14,33.766l5.811,11.164a14.028,14.028,0,0,1-2.536,16.48l-13.933,13.933a14.042,14.042,0,0,1-16.441,2.555l-11.242-5.82a115.31,115.31,0,0,1-33.775,13.992l-3.779,12a14.036,14.036,0,0,1-13.439,9.862H252.833a14.052,14.052,0,0,1-13.429-9.823l-3.838-12.059a115.146,115.146,0,0,1-33.765-14l-11.164,5.81a14.02,14.02,0,0,1-16.479-2.526l-13.933-13.943a14.032,14.032,0,0,1-2.557-16.431l5.812-11.252A115.144,115.144,0,0,1,149.5,287.269l-12-3.78a14.035,14.035,0,0,1-9.863-13.438V250.336a14.046,14.046,0,0,1,9.822-13.428l12.049-3.838a115.3,115.3,0,0,1,14.011-33.765L157.7,188.14a14.04,14.04,0,0,1,2.536-16.479l13.933-13.934a14.064,14.064,0,0,1,16.441-2.555l11.252,5.82A115.3,115.3,0,0,1,235.634,147l3.77-12a14.039,14.039,0,0,1,13.448-9.852h19.705A14.054,14.054,0,0,1,286,134.962l3.839,12.058a115.118,115.118,0,0,1,33.755,14l11.174-5.821a14.04,14.04,0,0,1,16.479,2.537l13.934,13.942a14.048,14.048,0,0,1,2.555,16.431l-5.819,11.252a115.193,115.193,0,0,1,13.99,33.775l11.991,3.779a14.037,14.037,0,0,1,9.862,13.439V270.07a14.054,14.054,0,0,1-9.814,13.429Zm62.827,72.271a6.786,6.786,0,0,0-7.57,5.928l-1.525,12.514L403.1,338.125a6.8,6.8,0,0,0-9.3,9.931l38.9,36.378-11.416,2.478a6.8,6.8,0,1,0,2.884,13.292l24.088-5.228a6.793,6.793,0,0,0,5.121-4.838c.029-.107.038-.223.068-.34s.048-.224.068-.33.039-.214.058-.321c0-.039.01-.068.01-.1l3.128-25.71a6.8,6.8,0,0,0-5.936-7.57Zm-317.236-16.8-38.585,36.1-1.515-12.515A6.8,6.8,0,1,0,79.927,364.2L83.055,389.9c0,.03.01.059.01.1.02.1.039.2.058.3.02.117.039.243.068.36s.039.223.068.33a6.8,6.8,0,0,0,5.111,4.839l24.1,5.227a6.717,6.717,0,0,0,1.447.156,6.8,6.8,0,0,0,1.438-13.448l-11.417-2.478,38.886-36.378a6.8,6.8,0,0,0-9.289-9.941ZM276.367,469.58l-9.6,6.646V422.97a6.8,6.8,0,0,0-13.6,0V475.8l-10.183-7.433a6.8,6.8,0,0,0-8.026,10.98l20.91,15.284c.02.009.049.029.068.038a7.456,7.456,0,0,0,.874.554,6.805,6.805,0,0,0,7.026-.427l20.278-14.021a6.806,6.806,0,0,0-7.743-11.194Zm146.69-287.328,8.9,7.559L380.519,203.59a6.8,6.8,0,1,0,3.516,13.146l51.032-13.68-4.547,11.757a6.8,6.8,0,0,0,12.689,4.916l9.348-24.155.028-.088c.04-.117.078-.233.117-.34s.068-.214.088-.32.068-.2.1-.311a6.807,6.807,0,0,0-2.235-6.676l-18.791-15.955a6.8,6.8,0,0,0-8.8,10.368Zm-349.834,20.8,51.031,13.68a6.936,6.936,0,0,0,1.768.234,6.806,6.806,0,0,0,1.758-13.38L76.342,189.811l8.9-7.559a6.8,6.8,0,0,0-8.8-10.367L57.647,187.839a6.787,6.787,0,0,0-2.236,6.676c.02.106.068.213.1.32.019.087.048.175.077.272.04.126.078.263.127.389a.658.658,0,0,1,.029.078l9.348,24.155a6.8,6.8,0,0,0,12.689-4.906l-4.556-11.767Zm45.094-98.808a6.386,6.386,0,0,0,1.049.077,6.808,6.808,0,0,0,6.714-5.752l1.934-12.456,37.36,37.36a6.8,6.8,0,0,0,9.619-9.619L137.343,76.2l11.484-2.089a6.8,6.8,0,0,0-2.439-13.389l-24.253,4.421a6.825,6.825,0,0,0-5.276,4.664c-.029.106-.049.214-.068.32a3.071,3.071,0,0,0-.078.311c-.028.127-.058.243-.078.36a.262.262,0,0,1-.019.1l-3.973,25.593a6.792,6.792,0,0,0,5.674,7.764Zm222.625,21.221a6.785,6.785,0,0,0,4.81-1.992l37.361-37.36,1.943,12.456a6.79,6.79,0,0,0,6.7,5.752,6.589,6.589,0,0,0,1.059-.077,6.8,6.8,0,0,0,5.674-7.764L394.51,70.891a.419.419,0,0,0-.02-.1c-.019-.117-.048-.243-.068-.36s-.049-.214-.078-.311-.039-.214-.077-.32A6.8,6.8,0,0,0,389,65.139l-24.252-4.421a6.8,6.8,0,1,0-2.439,13.389L373.8,76.2l-37.662,37.662a6.8,6.8,0,0,0,4.809,11.611ZM229.989,40.692a6.812,6.812,0,0,1,1.729-9.464L252,17.206a6.8,6.8,0,0,1,7.025-.427c.1.049.175.117.272.165s.194.117.292.185.194.126.291.2c.03.019.058.028.087.048l20.9,15.283a6.8,6.8,0,1,1-8.026,10.981L262.666,36.2V89.031a6.8,6.8,0,0,1-13.6,0V35.775l-9.609,6.646A6.8,6.8,0,0,1,229.989,40.692Z" style="fill:#282828;fill-rule:evenodd"></path><path d="M262.7,335.026A74.823,74.823,0,1,1,337.522,260.2,74.9,74.9,0,0,1,262.7,335.026ZM348,323.89a6.8,6.8,0,0,1,.368-6.908A101.736,101.736,0,0,0,363.417,280.7a6.828,6.828,0,0,1,4.605-5.14l15.79-5.023a.413.413,0,0,0,.34-.466V250.356a.414.414,0,0,0-.34-.467l-15.751-4.965a6.787,6.787,0,0,1-4.625-5.14,101.768,101.768,0,0,0-15.031-36.3,6.835,6.835,0,0,1-.379-6.889l7.618-14.721a.413.413,0,0,0-.088-.573l-13.934-13.944a.426.426,0,0,0-.582-.087l-14.652,7.637a6.806,6.806,0,0,1-6.91-.369,101.678,101.678,0,0,0-36.291-15.051,6.813,6.813,0,0,1-5.13-4.6l-5.023-15.79a.417.417,0,0,0-.477-.34h-19.7a.414.414,0,0,0-.467.34l-4.965,15.75a6.771,6.771,0,0,1-5.141,4.626,101.747,101.747,0,0,0-36.3,15.032,6.8,6.8,0,0,1-6.88.369l-14.739-7.609a.417.417,0,0,0-.574.088L169.854,181.28a.415.415,0,0,0-.088.574l7.637,14.662a6.785,6.785,0,0,1-.369,6.9,101.835,101.835,0,0,0-15.061,36.3,6.8,6.8,0,0,1-4.6,5.131l-15.789,5.023a.419.419,0,0,0-.35.466v19.715a.42.42,0,0,0,.35.466l15.751,4.965a6.8,6.8,0,0,1,4.624,5.141A101.6,101.6,0,0,0,177,316.924a6.813,6.813,0,0,1,.369,6.889l-7.608,14.72a.418.418,0,0,0,.087.583l13.934,13.934a.423.423,0,0,0,.573.087l14.663-7.637a6.79,6.79,0,0,1,6.9.369A101.829,101.829,0,0,0,242.2,360.92a6.813,6.813,0,0,1,5.13,4.606l5.034,15.789a.419.419,0,0,0,.466.35h19.714a.421.421,0,0,0,.467-.35l4.955-15.75a6.816,6.816,0,0,1,5.15-4.625,101.77,101.77,0,0,0,36.3-15.032,6.8,6.8,0,0,1,6.879-.369l14.731,7.608a.405.405,0,0,0,.573-.087l13.943-13.934a.426.426,0,0,0,.088-.573Z" style="fill:#ffe177;fill-rule:evenodd"></path><path d="M201.481,260.2A61.219,61.219,0,1,0,262.7,198.985,61.283,61.283,0,0,0,201.481,260.2Zm54.412,25.126a6.8,6.8,0,0,1,13.6,0v6.958a6.8,6.8,0,1,1-13.6,0v-6.957Zm0-21.794V228.124a6.8,6.8,0,0,1,13.6,0v35.407a6.8,6.8,0,1,1-13.6,0Z" style="fill:#eceff1;fill-rule:evenodd"></path><path d="M262.69,335.026v46.639h9.857a.421.421,0,0,0,.467-.35l4.955-15.75a6.816,6.816,0,0,1,5.15-4.625,101.77,101.77,0,0,0,36.3-15.032,6.8,6.8,0,0,1,6.879-.369l14.731,7.608a.405.405,0,0,0,.573-.087l13.943-13.934a.426.426,0,0,0,.088-.573L348,323.89a6.8,6.8,0,0,1,.368-6.908A101.736,101.736,0,0,0,363.417,280.7a6.828,6.828,0,0,1,4.605-5.14l15.79-5.023a.413.413,0,0,0,.34-.466V250.356a.414.414,0,0,0-.34-.467l-15.751-4.965a6.787,6.787,0,0,1-4.625-5.14,101.768,101.768,0,0,0-15.031-36.3,6.835,6.835,0,0,1-.379-6.889l7.618-14.721a.413.413,0,0,0-.088-.573l-13.934-13.944a.426.426,0,0,0-.582-.087l-14.652,7.637a6.806,6.806,0,0,1-6.91-.369,101.678,101.678,0,0,0-36.291-15.051,6.813,6.813,0,0,1-5.13-4.6l-5.023-15.79a.417.417,0,0,0-.477-.34H262.69v46.63h0a74.823,74.823,0,1,1,0,149.645Z" style="fill:#ffd064;fill-rule:evenodd"></path></svg>